<svg xmlns="http://www.w3.org/2000/svg" width="1000" height="450" viewBox="0 0 1000 450" fill="none" stroke="black" stroke-width="2">
  <g>
    <!-- 1. 右侧加热器 (Heater) - 底层 -->
    
    <!-- 内部管束主体 (Internal Tubes) -->
    <!-- x=500 到 x=810 -->
    <rect x="500" y="250" width="310" height="150" fill="white" stroke="#000000" stroke-width="2"/>
    
    <!-- 连接法兰 (Flange) -->
    <!-- x=810 -->
    <line x1="810" y1="245" x2="810" y2="405" stroke-width="4" />

    <!-- [新增] 加热器外伸筒体 (Extension Cylinder) -->
    <!-- 宽度=40 (等于封头深度), x=810 到 850 -->
    <rect x="810" y="250" width="40" height="150" fill="white" stroke="#000000" stroke-width="2"/>

    <!-- 外部封头 (Head) -->
    <!-- 起点右移至 x=850 -->
    <path d="M850,250 A40,75 0 0,1 850,400" fill="white" stroke="#000000" stroke-width="2"/>
    
    <!-- 封头隔板 (Separator) -->
    <!-- 从法兰 x=810 延伸至封头顶端 x=890 (850+40) -->
    <line x1="810" y1="325" x2="890" y2="325" stroke-width="2" />
    
    <!-- 管束示意线 (Tubes) -->
    <!-- 顶到法兰为止 x2=810 -->
    <g stroke="#000000" stroke-width="1" opacity="0.6">
      <line x1="510" y1="270" x2="810" y2="270" />
      <line x1="510" y1="290" x2="810" y2="290" />
      <line x1="510" y1="310" x2="810" y2="310" />
      <line x1="510" y1="330" x2="810" y2="330" />
      <line x1="510" y1="350" x2="810" y2="350" />
      <line x1="510" y1="370" x2="810" y2="370" />
    </g>

    <!-- 2. 主罐体 (Main Vessel) - 顶层覆盖 -->
    <rect x="100" y="25" width="600" height="400" fill="white" stroke="#000000" stroke-width="2"/>
    <path d="M100,25 A50,200 0 0,0 100,425" fill="white" stroke="#000000" stroke-width="2"/>
    <path d="M700,25 A50,200 0 0,1 700,425" fill="white" stroke="#000000" stroke-width="2"/>
  </g>
</svg>