<svg width="100" height="200" viewBox="16 4 36 68" xmlns="http://www.w3.org/2000/svg">
  <!-- 1. 液体填充层 (放在最底层) -->
  <!-- 路径逻辑：
       M 21.513 65: 从左侧液面位置开始
       L 21.513 64.722: 向上连接到封头左侧起始点
       c ... : 绘制底部封头的贝塞尔曲线 (提取自原图数据)
       L 46.259 65: 连接到右侧液面位置
       Z: 闭合
  -->
  <path 
    d="M 21.513 65 L 21.513 64.722 c 2.969 3.691 7.559 5.942 12.329 5.942 c 4.683 0 9.273 -2.251 12.329 -5.85 L 46.259 65 Z" 
    fill="#e6f7ff" 
    stroke="none" />

  <!-- 2. 原泵体轮廓 (覆盖在液体之上) -->
  <path
     style="fill:none;stroke:#000000;stroke-width:0.72;stroke-linecap:butt;stroke-linejoin:miter;stroke-miterlimit:4"
     d="m 21.513445,64.721847 0,-53.188474 m 24.74609,0 0,53.188474 m 0,-53.188474 c -3.06152,-3.6035133 -7.64648,-5.7617253 -12.3291,-5.7617253 -4.68261,0 -9.27246,2.250987 -12.3291,5.8496123 m 0,53.007807 c 2.96875,3.69141 7.5586,5.94239 12.3291,5.94239 4.68262,0 9.26758,-2.25098 12.3291,-5.84961 m -24.74609,-44.912112 24.74609,0 m -24.74609,6.660161 24.74609,0 m -24.74609,-6.660161 2.51465,3.242186 -2.51465,3.417975 m 22.58789,-3.417975 2.1582,3.061525 m 0,-5.942374 -2.1582,2.880849 m -17.55371,-3.242186 -2.51953,3.242186 2.51953,3.417975 m -2.51953,-3.417975 -2.51465,3.417975 m 2.51465,-3.417975 2.51953,3.417975 m -5.03418,-6.660161 2.51465,3.242186 m 2.51953,-3.242186 -2.51953,3.242186 -2.51465,3.417975 m 2.51465,-3.417975 2.51953,3.417975 m -5.03418,-6.660161 2.51465,3.242186 m 2.51953,-3.242186 -2.51953,3.242186 -2.51465,3.417975 m 2.51465,-3.417975 2.51953,3.417975 m -5.03418,-6.660161 2.51465,3.242186 m 2.51953,-3.242186 -2.51953,3.242186 m 5.04395,0 2.43164,3.417975 m -2.43164,-3.417975 -2.52442,3.417975 m 2.52442,-3.417975 2.43164,3.417975 m -2.43164,-3.417975 -2.52442,3.417975 m 2.52442,-3.417975 2.43164,3.417975 m -2.43164,-3.417975 -2.52442,3.417975 m 4.95606,-6.660161 -2.43164,3.242186 m 2.43164,-3.242186 -2.43164,3.242186 m 2.43164,-3.242186 -2.43164,3.242186 m 2.43164,-3.242186 -2.43164,3.242186 m -2.52442,-3.242186 2.52442,3.242186 m -2.52442,-3.242186 2.52442,3.242186 m -2.52442,-3.242186 2.52442,3.242186 m -2.52442,-3.242186 2.52442,3.242186 m 7.46582,-3.242186 2.52441,3.242186 -2.52441,3.417975 m 2.52441,-3.417975 2.51953,3.417975 m -2.51953,-3.417975 -2.52441,3.417975 m 2.52441,-3.417975 2.51953,3.417975 m -2.51953,-3.417975 -2.52441,3.417975 m 2.52441,-3.417975 2.51953,3.417975 m -7.55859,-3.417975 2.51465,3.417975 m -2.51465,-3.417975 -2.51953,3.417975 m 2.51953,-3.417975 2.51465,3.417975 m -2.51465,-3.417975 -2.51953,3.417975 m 2.51953,-3.417975 2.51465,3.417975 m -2.51465,-3.417975 -2.51953,3.417975 m 5.03418,-6.660161 -2.51465,3.242186 m 2.51465,-3.242186 -2.51465,3.242186 m 2.51465,-3.242186 -2.51465,3.242186 m 2.51465,-3.242186 -2.51465,3.242186 m -2.51953,-3.242186 2.51953,3.242186 m -2.51953,-3.242186 2.51953,3.242186 m -2.51953,-3.242186 2.51953,3.242186 m -2.51953,-3.242186 2.51953,3.242186 m 2.51465,-3.242186 2.52441,3.242186 m -2.52441,-3.242186 2.52441,3.242186 m -2.52441,-3.242186 2.52441,3.242186 m 2.51953,-3.242186 -2.51953,3.242186 m 2.51953,-3.242186 -2.51953,3.242186 m 2.51953,-3.242186 -2.51953,3.242186 m 2.51953,-3.242186 -2.51953,3.242186 m 2.51953,-3.242186 2.51953,3.242186 -2.51953,3.417975 m -20.06836,5.76171 -4.05273,0 0,-2.6123 m 0,2.6123 0,2.7002 m 4.05273,15.297851 -4.05273,0 0,-2.60742 m 0,2.60742 0,2.6123 m 0,7.47071 0,2.60741 m 4.05273,-2.60741 -4.05273,0 0,-2.60742 m 16.46972,-55.9814493 -2.70019,0 m 2.70019,4.04785 0,-4.04785 2.60743,0 m 9.72167,37.2558583 4.67774,0 m -4.67774,6.660161 4.67774,0 m 0,-6.660161 0,9.091801 m 0,-9.091801 0,-3.14941 m 1.98242,3.14941 0,9.091801 m 0,-9.091801 0,-3.14941" />
</svg>